<?xml version="1.0" encoding="UTF-8" standalone="no"?>
<!-- Created with Inkscape (http://www.inkscape.org/) -->

<svg
   xmlns:dc="http://purl.org/dc/elements/1.1/"
   xmlns:cc="http://creativecommons.org/ns#"
   xmlns:rdf="http://www.w3.org/1999/02/22-rdf-syntax-ns#"
   xmlns:svg="http://www.w3.org/2000/svg"
   xmlns="http://www.w3.org/2000/svg"
   xmlns:sodipodi="http://sodipodi.sourceforge.net/DTD/sodipodi-0.dtd"
   xmlns:inkscape="http://www.inkscape.org/namespaces/inkscape"
   width="500"
   height="500"
   viewBox="0 0 500.00001 500.00001"
   id="svg2"
   version="1.1"
   inkscape:version="0.91 r13725"
   sodipodi:docname="kite-with-diagonals.svg"
   inkscape:export-filename="/home/sheshank/Downloads/math/calculators/images/kite-with-diagonals.png"
   inkscape:export-xdpi="90"
   inkscape:export-ydpi="90">
  <defs
     id="defs4" />
  <sodipodi:namedview
     id="base"
     pagecolor="#ffffff"
     bordercolor="#666666"
     borderopacity="1.0"
     inkscape:pageopacity="0.0"
     inkscape:pageshadow="2"
     inkscape:zoom="0.85722656"
     inkscape:cx="83.94509"
     inkscape:cy="333.35156"
     inkscape:document-units="px"
     inkscape:current-layer="g4198"
     showgrid="false"
     units="px"
     inkscape:window-width="1317"
     inkscape:window-height="744"
     inkscape:window-x="49"
     inkscape:window-y="24"
     inkscape:window-maximized="1" />
  <metadata
     id="metadata7">
    <rdf:RDF>
      <cc:Work
         rdf:about="">
        <dc:format>image/svg+xml</dc:format>
        <dc:type
           rdf:resource="http://purl.org/dc/dcmitype/StillImage" />
        <dc:title></dc:title>
      </cc:Work>
    </rdf:RDF>
  </metadata>
  <g
     inkscape:label="Layer 1"
     inkscape:groupmode="layer"
     id="layer1"
     transform="translate(0,-552.36216)">
    <g
       id="g4198"
       transform="matrix(1.0677755,0,0,1.0677755,-32.817266,-78.970946)">
      <g
         id="g4148"
         transform="translate(21.083253,28.919146)">
        <path
           transform="matrix(0.51104917,-0.85955148,0.54438861,0.83883314,0,0)"
           style="opacity:1;fill:none;fill-opacity:1;stroke:#000000;stroke-width:7.39256287;stroke-miterlimit:4;stroke-dasharray:none;stroke-opacity:1"
           d="m -318.45039,521.67804 187.191,53.04418 43.832559,180.3388 -286.304459,48.57085 z"
           id="rect4144"
           inkscape:connector-curvature="0"
           sodipodi:nodetypes="ccccc" />
        <path
           inkscape:connector-curvature="0"
           style="opacity:1;fill:#000000;fill-opacity:1;stroke:none;stroke-width:7;stroke-miterlimit:4;stroke-dasharray:none;stroke-opacity:1"
           d="m 123.98828,706.93049 0,7 13.66406,0 0,-7 -13.66406,0 z m 27.66406,0 0,7 9.33204,0 0,-7 -9.33204,0 z m 23.33008,0 0,7 10.5,0 0,-7 -10.5,0 z m 24.49805,0 0,7 12.83203,0 0,-7 -12.83203,0 z m 26.83008,0 0,7 10.5,0 0,-7 -10.5,0 z m 24.49804,0 0,7 9.33203,0 0,-7 -9.33203,0 z m 23.33203,0 0,7 12.83204,0 0,-7 -12.83204,0 z m 26.83008,0 0,7 10.49805,0 0,-7 -10.49805,0 z m 24.49805,0 0,7 10.49805,0 0,-7 -10.49805,0 z m 24.49805,0 0,7 17.83008,0 0,-7 -17.83008,0 z"
           id="rect4146" />
        <path
           id="path4196"
           d="m 249.39258,595.65679 -7,0 0,22.29402 7,0 0,-22.29402 z m 0,45.13617 -7,0 0,15.22597 7,0 0,-15.22597 z m 0,38.06492 -7,0 0,17.1316 7,0 0,-17.1316 z m 0,39.97055 -7,0 0,20.9365 7,0 0,-20.9365 z m 0,43.77547 -7,0 0,17.1316 7,0 0,-17.1316 z m 0,39.97054 -7,0 0,15.22597 7,0 0,-15.22597 z m 0,38.06811 -7,0 0,20.93652 7,0 0,-20.93652 z m 0,43.77545 -7,0 0,17.12843 7,0 0,-17.12843 z m 0,39.97057 -7,0 0,17.12841 7,0 0,-17.12841 z m 0,39.97055 -7,0 0,29.09123 7,0 0,-29.09123 z"
           style="opacity:1;fill:#000000;fill-opacity:1;stroke:none;stroke-width:7;stroke-miterlimit:4;stroke-dasharray:none;stroke-opacity:1"
           inkscape:connector-curvature="0" />
      </g>
    </g>
  </g>
</svg>
